<mxfile host="app.diagrams.net" modified="2023-04-08T11:12:10.715Z" agent="Mozilla/5.0 (Windows NT 10.0; Win64; x64; rv:109.0) Gecko/20100101 Firefox/111.0" etag="v4vCEMpDoMvMzKYXwVHQ" version="21.1.5">
  <diagram name="Page-1" id="_jlwwym89BQ75zo4eOzI">
    <mxGraphModel dx="906" dy="312" grid="1" gridSize="10" guides="1" tooltips="1" connect="1" arrows="1" fold="1" page="1" pageScale="1" pageWidth="850" pageHeight="1100" math="0" shadow="0">
      <root>
        <mxCell id="0" />
        <mxCell id="1" parent="0" />
        <mxCell id="TxHzLz7YqYgrMDHCUduJ-6" style="edgeStyle=orthogonalEdgeStyle;rounded=0;orthogonalLoop=1;jettySize=auto;html=1;entryX=0;entryY=0.5;entryDx=0;entryDy=0;entryPerimeter=0;" edge="1" parent="1" source="TxHzLz7YqYgrMDHCUduJ-1" target="TxHzLz7YqYgrMDHCUduJ-2">
          <mxGeometry relative="1" as="geometry" />
        </mxCell>
        <mxCell id="TxHzLz7YqYgrMDHCUduJ-1" value="" style="verticalLabelPosition=bottom;html=1;verticalAlign=top;align=center;strokeColor=none;fillColor=#00BEF2;shape=mxgraph.azure.user;" vertex="1" parent="1">
          <mxGeometry x="40" y="84.68" width="47.5" height="50" as="geometry" />
        </mxCell>
        <mxCell id="TxHzLz7YqYgrMDHCUduJ-7" style="edgeStyle=orthogonalEdgeStyle;rounded=0;orthogonalLoop=1;jettySize=auto;html=1;exitX=0.992;exitY=0.292;exitDx=0;exitDy=0;exitPerimeter=0;entryX=-0.023;entryY=0.349;entryDx=0;entryDy=0;entryPerimeter=0;" edge="1" parent="1" source="TxHzLz7YqYgrMDHCUduJ-2" target="TxHzLz7YqYgrMDHCUduJ-3">
          <mxGeometry relative="1" as="geometry">
            <mxPoint x="270" y="115" as="sourcePoint" />
          </mxGeometry>
        </mxCell>
        <mxCell id="TxHzLz7YqYgrMDHCUduJ-2" value="" style="verticalLabelPosition=bottom;html=1;verticalAlign=top;align=center;strokeColor=none;fillColor=#00BEF2;shape=mxgraph.azure.computer;pointerEvents=1;" vertex="1" parent="1">
          <mxGeometry x="150" y="81.55" width="62.5" height="56.25" as="geometry" />
        </mxCell>
        <mxCell id="TxHzLz7YqYgrMDHCUduJ-8" style="edgeStyle=orthogonalEdgeStyle;rounded=0;orthogonalLoop=1;jettySize=auto;html=1;entryX=0;entryY=0.5;entryDx=0;entryDy=0;startArrow=classic;startFill=1;" edge="1" parent="1" source="TxHzLz7YqYgrMDHCUduJ-3" target="TxHzLz7YqYgrMDHCUduJ-5">
          <mxGeometry relative="1" as="geometry">
            <mxPoint x="540" y="115" as="targetPoint" />
          </mxGeometry>
        </mxCell>
        <mxCell id="TxHzLz7YqYgrMDHCUduJ-3" value="" style="image;points=[];aspect=fixed;html=1;align=center;shadow=0;dashed=0;image=img/lib/allied_telesis/storage/Datacenter_Server_Half_Rack_ToR.svg;" vertex="1" parent="1">
          <mxGeometry x="390" y="58" width="88.2" height="114.6" as="geometry" />
        </mxCell>
        <mxCell id="TxHzLz7YqYgrMDHCUduJ-5" value="" style="image;html=1;image=img/lib/clip_art/computers/Database_128x128.png" vertex="1" parent="1">
          <mxGeometry x="591" y="75.3" width="80" height="80" as="geometry" />
        </mxCell>
        <mxCell id="TxHzLz7YqYgrMDHCUduJ-9" value="&lt;div style=&quot;font-size: 16px;&quot;&gt;User&lt;/div&gt;" style="text;html=1;align=center;verticalAlign=middle;resizable=0;points=[];autosize=1;strokeColor=none;fillColor=none;fontSize=16;" vertex="1" parent="1">
          <mxGeometry x="36" y="45.3" width="60" height="30" as="geometry" />
        </mxCell>
        <mxCell id="TxHzLz7YqYgrMDHCUduJ-10" value="Frontend" style="text;html=1;align=center;verticalAlign=middle;resizable=0;points=[];autosize=1;strokeColor=none;fillColor=none;fontSize=16;" vertex="1" parent="1">
          <mxGeometry x="140" y="45.3" width="90" height="30" as="geometry" />
        </mxCell>
        <mxCell id="TxHzLz7YqYgrMDHCUduJ-11" value="&lt;div style=&quot;font-size: 16px;&quot;&gt;Backend&lt;/div&gt;&lt;div style=&quot;font-size: 16px;&quot;&gt;(API service)&lt;/div&gt;" style="text;html=1;align=center;verticalAlign=middle;resizable=0;points=[];autosize=1;strokeColor=none;fillColor=none;fontSize=16;" vertex="1" parent="1">
          <mxGeometry x="374.1" y="9" width="120" height="50" as="geometry" />
        </mxCell>
        <mxCell id="TxHzLz7YqYgrMDHCUduJ-12" value="Database" style="text;html=1;align=center;verticalAlign=middle;resizable=0;points=[];autosize=1;strokeColor=none;fillColor=none;fontSize=16;" vertex="1" parent="1">
          <mxGeometry x="586" y="38" width="90" height="30" as="geometry" />
        </mxCell>
        <mxCell id="TxHzLz7YqYgrMDHCUduJ-13" value="Post feedback" style="text;html=1;align=center;verticalAlign=middle;resizable=0;points=[];autosize=1;strokeColor=none;fillColor=none;" vertex="1" parent="1">
          <mxGeometry x="246" y="71" width="100" height="30" as="geometry" />
        </mxCell>
        <mxCell id="TxHzLz7YqYgrMDHCUduJ-14" value="&lt;div&gt;Acknowledgement/Error&lt;br&gt;&lt;/div&gt;" style="text;html=1;align=center;verticalAlign=middle;resizable=0;points=[];autosize=1;strokeColor=none;fillColor=none;" vertex="1" parent="1">
          <mxGeometry x="230.00000000000003" y="121" width="150" height="30" as="geometry" />
        </mxCell>
        <mxCell id="TxHzLz7YqYgrMDHCUduJ-15" style="edgeStyle=orthogonalEdgeStyle;rounded=0;orthogonalLoop=1;jettySize=auto;html=1;exitX=-0.034;exitY=0.567;exitDx=0;exitDy=0;exitPerimeter=0;entryX=1.008;entryY=0.737;entryDx=0;entryDy=0;entryPerimeter=0;" edge="1" parent="1" source="TxHzLz7YqYgrMDHCUduJ-3" target="TxHzLz7YqYgrMDHCUduJ-2">
          <mxGeometry relative="1" as="geometry">
            <mxPoint x="300" y="125" as="sourcePoint" />
            <mxPoint x="270" y="133" as="targetPoint" />
          </mxGeometry>
        </mxCell>
        <mxCell id="TxHzLz7YqYgrMDHCUduJ-16" value="Insert feedback" style="text;html=1;align=center;verticalAlign=middle;resizable=0;points=[];autosize=1;strokeColor=none;fillColor=none;" vertex="1" parent="1">
          <mxGeometry x="484" y="83.3" width="110" height="30" as="geometry" />
        </mxCell>
      </root>
    </mxGraphModel>
  </diagram>
</mxfile>
